<mxfile host="app.diagrams.net" modified="2024-04-21T18:46:30.873Z" agent="Mozilla/5.0 (Windows NT 10.0; Win64; x64) AppleWebKit/537.36 (KHTML, like Gecko) Chrome/123.0.0.0 Safari/537.36" version="24.2.7" etag="y7gbN7037B2GU91iJmXx" type="github">
  <diagram name="第 1 页" id="8Z1sIMQthmCCuCAHoL5u">
    <mxGraphModel>
      <root>
        <mxCell id="0" />
        <mxCell id="1" parent="0" />
      </root>
    </mxGraphModel>
  </diagram>
</mxfile>
